HIERARCHY
ROOT Hips
{
 OFFSET 0.000000 0.000000 0.000000
 CHANNELS 6 Xposition Yposition Zposition Yrotation Xrotation Zrotation
 JOINT Chest
 {
  OFFSET 0.000000 10.678932 0.006280
  CHANNELS 3 Yrotation Xrotation Zrotation
  JOINT Chest2
  {
   OFFSET 0.000000 10.491159 -0.011408
   CHANNELS 3 Yrotation Xrotation Zrotation
   JOINT Chest3
   {
    OFFSET 0.000000 9.479342 0.000000
    CHANNELS 3 Yrotation Xrotation Zrotation
    JOINT Chest4
    {
     OFFSET 0.000000 9.479342 0.000000
     CHANNELS 3 Yrotation Xrotation Zrotation
     JOINT Neck
     {
      OFFSET 0.000000 13.535332 0.000000
      CHANNELS 3 Yrotation Xrotation Zrotation
      JOINT Head
      {
       OFFSET 0.000000 8.819083 -0.027129
       CHANNELS 3 Yrotation Xrotation Zrotation
       End Site
       {
        OFFSET 0.000000 16.966594 -0.014170
       }
      }
     }
     JOINT RightCollar
     {
      OFFSET -3.012546 7.545150 0.000000
      CHANNELS 3 Yrotation Xrotation Zrotation
      JOINT RightShoulder
      {
       OFFSET -13.683099 0.000000 0.000000
       CHANNELS 3 Yrotation Xrotation Zrotation
       JOINT RightElbow
       {
        OFFSET -26.359998 0.000000 0.000000
        CHANNELS 3 Yrotation Xrotation Zrotation
        JOINT RightWrist
        {
         OFFSET -21.746691 0.000000 0.008601
         CHANNELS 3 Yrotation Xrotation Zrotation
         End Site
         {
          OFFSET -16.348058 0.000000 0.000000
         }
        }
       }
      }
     }
     JOINT LeftCollar
     {
      OFFSET 3.012546 7.545150 0.000000
      CHANNELS 3 Yrotation Xrotation Zrotation
      JOINT LeftShoulder
      {
       OFFSET 13.683099 0.000000 0.000000
       CHANNELS 3 Yrotation Xrotation Zrotation
       JOINT LeftElbow
       {
        OFFSET 26.359998 0.000000 0.000000
        CHANNELS 3 Yrotation Xrotation Zrotation
        JOINT LeftWrist
        {
         OFFSET 21.746691 0.000000 0.008601
         CHANNELS 3 Yrotation Xrotation Zrotation
         End Site
         {
          OFFSET 16.348058 0.000000 0.000000
         }
        }
       }
      }
     }
    }
   }
  }
 }
 JOINT RightHip
 {
  OFFSET -8.622479 -0.030774 -0.003140
  CHANNELS 3 Yrotation Xrotation Zrotation
  JOINT RightKnee
  {
   OFFSET 0.000000 -37.209160 -0.002630
   CHANNELS 3 Yrotation Xrotation Zrotation
   JOINT RightAnkle
   {
    OFFSET 0.000000 -37.343279 -0.058479
    CHANNELS 3 Yrotation Xrotation Zrotation
    JOINT RightToe
    {
     OFFSET 0.000000 -8.903465 15.088070
     CHANNELS 3 Yrotation Xrotation Zrotation
     End Site
     {
      OFFSET 0.000000 -1.471739 6.884388
     }
    }
   }
  }
 }
 JOINT LeftHip
 {
  OFFSET 8.622479 -0.030774 -0.003140
  CHANNELS 3 Yrotation Xrotation Zrotation
  JOINT LeftKnee
  {
   OFFSET 0.000000 -37.209160 -0.002630
   CHANNELS 3 Yrotation Xrotation Zrotation
   JOINT LeftAnkle
   {
    OFFSET 0.000000 -37.343279 -0.058479
    CHANNELS 3 Yrotation Xrotation Zrotation
    JOINT LeftToe
    {
     OFFSET 0.000000 -8.903465 15.088070
     CHANNELS 3 Yrotation Xrotation Zrotation
     End Site
     {
      OFFSET 0.000000 -1.471739 6.884388
     }
    }
   }
  }
 }
}
MOTION
Frames: 15
Frame Time: 0.200000
-0.207611 83.315683 -17.340600 0.000000 -5.826342 0.000000 0.000000 11.116423 0.000000 0.000000 -5.290081 0.000000 0.000000 0.000000 0.000000 0.000000 0.000000 0.000000 0.000000 12.665069 0.000000 0.000000 0.575450 0.000000 0.000000 0.000000 0.000000 0.000000 0.000000 0.000000 2.337306 0.000000 0.000000 -2.337306 0.000000 0.000000 0.000000 0.000000 0.000000 0.000000 0.000000 0.000000 -2.337306 0.000000 0.000000 2.337306 0.000000 0.000000 0.000000 8.578828 0.000000 0.000000 1.905768 0.000000 0.000000 -4.658254 0.000000 0.000000 0.000000 0.000000 0.000000 8.578828 0.000000 0.000000 1.905768 0.000000 0.000000 -4.658254 0.000000 0.000000 0.000000 0.000000
-170.105163 81.763012 -341.518649 22.973294 -6.140403 -0.378434 1.571869 4.684700 0.017357 0.058812 0.172429 0.003020 0.096645 0.283333 0.005057 1.512957 4.417373 0.133530 -3.263898 15.809330 1.331362 -6.569528 -6.678738 3.674099 -0.339487 -4.150904 -0.129131 5.500993 31.049956 54.880975 115.548088 19.768723 64.265869 29.761954 9.035494 -14.615540 -4.696916 -2.588672 7.396422 -27.327759 24.813751 -66.020349 -106.408958 23.329066 -56.741332 -26.524608 9.863561 23.986570 0.208733 9.103247 -16.632317 -18.366745 3.305352 -0.394245 22.065013 -8.078231 18.198415 0.064060 -0.119340 0.031868 5.422383 15.510489 15.979354 10.364921 -7.877716 -0.125530 -2.444896 -0.348229 -18.475768 -0.062450 0.032678 -0.032738
-170.148588 81.739593 -341.359696 22.528243 -6.168488 -0.399799 1.862624 4.577359 -0.067067 0.069140 0.167953 0.000278 0.113623 0.276005 0.000565 1.778392 4.310690 0.071483 -3.290175 15.963769 1.202502 -6.563059 -6.399445 3.434012 -0.557068 -4.152983 0.316792 4.471639 31.267996 54.778683 116.415295 20.235572 64.309755 29.925974 9.083029 -14.557673 -5.566177 -1.831160 7.466671 -26.718750 24.457194 -65.047598 -106.739370 23.163632 -56.514669 -27.101817 9.484046 24.174748 0.286790 8.979607 -16.703807 -18.297252 3.552790 -0.289497 22.271379 -8.164982 18.217985 0.074081 -0.132652 0.037993 5.588438 15.774421 15.938572 10.684256 -7.909439 -0.019231 -2.390322 -0.379330 -18.528691 -0.093609 0.065129 -0.045381
-170.156878 81.744527 -341.351665 22.329481 -6.076437 -0.347857 1.959862 4.431665 -0.136650 0.071100 0.159341 -0.002353 0.116971 0.262148 -0.003766 1.865630 4.178921 0.003748 -3.479508 15.126092 1.294362 -6.998321 -7.934654 3.730033 -0.620015 -4.196833 0.259457 4.465389 31.265352 54.927576 117.059881 20.609903 64.335763 30.157327 9.253950 -14.615578 -5.791276 -1.360012 7.547370 -26.213527 24.128145 -64.250993 -107.254078 23.019731 -56.210173 -27.624476 9.424305 23.730464 0.327437 8.833714 -16.787722 -18.347018 3.548608 -0.321072 22.630526 -8.152946 18.257923 0.074264 -0.145395 0.027152 5.628061 15.799538 15.774323 10.758305 -7.996209 0.041229 -2.371990 -0.373752 -18.572497 -0.073388 0.069695 -0.046379
-170.351994 81.761381 -341.416564 22.094868 -6.260767 -0.432334 1.815049 4.277415 -0.104213 0.063659 0.148179 -0.001621 0.104954 0.244309 -0.002585 1.742260 4.052481 0.015032 -3.362277 15.569138 0.961482 -6.630580 -7.143122 3.036186 -1.237341 -4.159738 -0.085822 4.898641 30.918435 54.917924 117.316680 20.447742 64.217375 30.235760 9.284321 -14.202158 -5.303396 -1.304094 7.821911 -26.062978 23.924602 -64.130636 -107.832294 22.992345 -56.162785 -27.461431 9.347080 23.425231 0.508148 8.922897 -16.590815 -18.520056 3.462994 -0.407639 22.931770 -8.171033 18.413495 0.062204 -0.096458 0.018510 5.613216 15.911591 15.877831 10.891529 -7.885338 0.082574 -2.335185 -0.345496 -18.594062 -0.049534 0.072697 -0.035569
-170.410843 81.794638 -341.689883 21.719818 -6.447952 -0.312846 1.975422 4.239104 -0.193523 0.072936 0.152247 -0.003636 0.120098 0.250705 -0.005885 1.946385 4.064040 -0.030617 -3.534740 15.426645 1.259006 -7.070217 -7.376318 3.663798 -2.317596 -4.205676 -0.441095 6.339627 30.344925 54.829749 117.157037 20.245919 64.013649 30.795250 9.170923 -14.566334 -4.412175 -1.425470 9.074474 -26.240087 22.521859 -64.183586 -108.265172 22.484462 -56.279065 -27.610390 9.080271 21.510786 0.886059 8.850530 -16.689695 -18.552636 3.517593 -0.552654 22.896696 -8.151891 18.515238 0.082833 -0.129391 0.061819 5.347012 15.978215 15.590427 11.179157 -7.621742 0.051608 -2.198944 -0.449029 -18.451950 -0.052008 0.035309 -0.008188
-170.617112 81.811295 -341.782347 21.879341 -6.960717 -0.394995 1.632703 4.508792 0.040516 0.057179 0.158427 0.002996 0.094168 0.260896 0.005018 1.533514 4.232000 0.134645 -3.279262 14.597084 0.847327 -6.483954 -8.958217 2.852052 -2.708640 -3.785609 -0.842324 6.039216 29.696371 54.578012 117.455076 19.987747 63.745558 31.215241 9.088611 -14.957013 -3.806390 -1.071963 8.873337 -26.036071 22.484695 -64.385493 -108.352168 22.885824 -56.114407 -27.839700 9.326570 21.968770 1.405904 9.342107 -16.442481 -18.777110 3.780137 -0.612875 22.634133 -8.395512 18.425396 0.053750 -0.121602 0.025256 5.325603 16.230788 15.830914 11.194458 -7.446577 -0.008780 -2.339533 -0.372964 -18.568217 -0.004526 0.087707 0.002893
-171.178546 81.849026 -341.707596 22.052518 -7.484923 -0.867610 1.445722 4.877187 0.157654 0.051149 0.178090 0.005378 0.084017 0.292491 0.008917 1.306644 4.520348 0.186197 -3.011438 13.809422 1.160083 -6.145449 -10.414535 3.385661 -2.934509 -3.505580 -0.833579 5.447883 29.619950 54.571968 116.909957 19.834872 63.230422 30.669790 8.743176 -13.700805 -3.395291 -0.921052 8.730432 -25.883236 22.308423 -64.544206 -108.229954 23.053212 -56.148974 -27.551517 9.528105 22.173684 1.806185 9.518787 -15.680507 -18.472339 4.601448 -0.576247 22.112851 -9.035820 18.174148 0.026009 -0.033672 -0.011385 5.664374 16.277818 16.883722 11.331082 -7.041890 -0.143884 -2.653647 -0.190536 -18.959340 -0.003238 0.059441 0.014497
-171.285915 81.866089 -341.579476 22.329692 -7.520401 -0.680082 1.976452 5.038637 -0.116057 0.073943 0.193608 -0.005029 0.121038 0.316941 -0.008102 1.767580 4.631624 -0.051846 -3.493241 12.857158 1.106598 -7.094319 -12.154437 3.543575 -2.856271 -3.727819 -0.205230 4.790685 30.125911 54.726157 116.491532 20.028950 63.339509 31.168683 8.935652 -14.432205 -2.920044 -0.536058 9.614735 -25.185545 21.277171 -64.258958 -109.085684 22.857754 -56.121043 -27.455675 9.410809 20.750882 2.023438 9.765782 -15.730224 -18.601523 4.646415 -0.594448 21.708272 -9.085045 18.071428 0.036000 -0.129717 0.029889 5.578604 16.171594 16.848326 11.305988 -6.794077 -0.259940 -2.710469 -0.149235 -19.085915 -0.004646 0.033827 0.042145
-171.388481 81.892013 -341.549963 22.674578 -7.616489 -0.593439 1.762761 4.965981 -0.117368 0.063366 0.185356 -0.005682 0.103895 0.303940 -0.009209 1.559714 4.570048 -0.080415 -3.539956 13.664415 1.015029 -7.093950 -10.661146 3.330909 -2.283935 -3.911945 -0.130601 4.721231 29.993374 54.486493 115.749364 19.608652 63.271322 30.292249 8.489577 -13.237703 -3.019156 -0.691234 9.374549 -25.540957 21.565237 -64.160766 -109.145127 22.910991 -56.107485 -27.466106 9.522786 21.117503 1.951942 10.216580 -15.727765 -18.888622 4.106693 -0.575204 21.694835 -8.701547 18.303637 0.025715 -0.093394 -0.038399 5.307624 15.989015 16.790421 11.089026 -6.408146 -0.192686 -2.637015 -0.012105 -19.363999 0.051379 0.183802 -0.052652
-171.775983 81.866890 -342.044732 21.978781 -7.234093 -0.970768 1.746429 5.254662 -0.048413 0.070455 0.211676 -0.003738 0.115068 0.345737 -0.005971 1.620155 4.867367 -0.020139 -3.188913 13.664106 1.094248 -6.462709 -10.677864 3.341157 -1.900788 -4.160967 0.094732 4.490971 30.379425 54.801644 115.170376 19.662804 63.156408 29.685636 7.981383 -13.119638 -3.132314 -1.230634 9.047787 -25.727662 21.949747 -64.775930 -108.735900 23.518868 -56.239072 -27.260735 9.717854 21.628532 1.438921 8.983207 -15.438393 -18.095346 3.948282 -0.609856 22.478561 -8.320182 18.420765 -0.003655 -0.030512 0.003411 5.160098 15.119575 17.159304 10.976639 -5.605927 -0.183820 -2.088836 -0.733396 -18.953599 0.095963 0.141420 0.058189
-171.692828 81.885462 -342.321858 21.760999 -6.685344 -1.001565 1.454200 5.286213 -0.043330 0.061835 0.218239 0.001104 0.100947 0.356268 0.001923 1.413644 4.972704 0.083871 -2.889746 13.428120 1.011434 -5.877594 -11.138000 3.080226 -0.596103 -4.312291 0.645369 3.797143 30.132790 53.866263 114.470548 19.336108 63.013359 28.766019 7.299453 -10.778082 -3.867371 -2.369955 8.013278 -26.823751 23.006892 -65.088107 -107.023872 24.026651 -56.142397 -26.771693 9.879415 22.307385 1.465550 8.104859 -15.585438 -17.892465 4.060731 -0.706798 22.464179 -7.984398 18.528154 0.069661 -0.203268 0.051798 4.999794 14.988502 16.782258 11.075739 -6.445940 -0.137427 -1.844651 -0.607569 -18.711431 0.056472 0.138962 0.012568
-171.655506 81.874708 -342.048391 21.560765 -6.280171 -1.004194 1.418426 5.352669 -0.103857 0.059336 0.219397 -0.000107 0.096858 0.358137 -0.000058 1.353991 4.994166 0.054014 -2.767721 12.953765 0.967577 -5.654249 -12.027188 2.976162 -0.756429 -4.329396 0.401691 3.359293 30.495211 54.592120 114.393389 19.190522 62.086643 26.929545 6.827907 -8.568644 -3.173432 -2.254975 8.103416 -26.415673 22.870359 -65.378716 -107.418323 24.230051 -56.096578 -26.361108 9.936994 21.661453 2.044350 7.757960 -15.651089 -17.570078 4.614210 -0.546269 21.790211 -8.373677 18.345874 0.093761 -0.196343 0.057457 4.852132 14.824673 16.628307 10.819235 -6.226623 -0.000628 -1.320555 -1.186886 -18.506873 -0.011132 0.195149 -0.058604
-172.922845 80.958815 -339.724888 19.970332 -6.121186 -1.431941 1.083795 6.080874 0.472582 0.044693 0.267204 0.016247 0.072569 0.433632 0.026473 0.942844 5.524997 0.379729 -2.100130 11.486174 0.422264 -4.217335 -14.807664 1.729081 -0.981725 -2.199162 -0.318941 -0.468620 32.835542 56.945931 113.081648 19.718799 52.941871 17.167486 2.773172 7.456620 0.207562 0.851160 11.110092 -25.717609 21.244264 -72.459237 -105.139535 28.796693 -50.770498 -26.309652 11.126156 19.242608 5.890774 0.260322 -13.459860 -7.727229 22.148406 -1.101119 11.935816 -18.365120 11.069812 -0.088642 -0.205416 1.263608 2.064322 6.684078 18.893573 5.179189 14.909891 -0.128130 3.539936 -14.711911 -16.187138 0.180079 -0.160601 -1.089573
-176.466349 74.518336 -336.856531 18.663756 -8.753043 -3.444161 -0.295987 9.305742 1.696043 -0.050619 0.737451 0.125722 -0.077875 1.144612 0.194860 -0.497262 8.703586 1.451615 -0.029628 8.382220 0.096525 -0.106351 -20.618805 0.205042 2.059058 -3.925031 4.668956 -3.407142 4.981188 67.779582 78.496060 4.526861 37.402340 -7.623441 1.758161 37.169340 4.579968 -0.282385 0.795326 -14.599178 16.085464 -83.180623 -28.664047 48.802245 -6.619097 -19.469769 9.138743 17.126112 9.062549 -12.885601 -7.293419 -7.357145 53.934519 -7.172203 6.404207 -33.896536 5.033874 -0.783392 0.155033 -0.441880 2.717313 -6.016918 25.679937 -6.031460 46.501230 -2.898295 9.815333 -29.069761 -18.053718 0.018089 -0.123443 -0.276603
